<svg xmlns="http://www.w3.org/2000/svg" viewBox="0 0 522.49 227.28"><defs><style>.cls-1,.cls-4{fill:#fff;}.cls-1{stroke:#fff;stroke-miterlimit:10;stroke-width:0.25px;}.cls-2{fill:#0076b6;}.cls-3{fill:#ffcf36;}</style></defs><title>Asset 1</title><g id="Layer_2" data-name="Layer 2"><g id="Layer_1-2" data-name="Layer 1"><path class="cls-1" d="M261.93,102.31a2.87,2.87,0,0,0-2.79-2.32c-1.78,0-2.76,1.05-2.76,2.32,0,1.08.51,2,3.66,3,3.85,1.23,5,3.22,5,5.54,0,3.19-2.32,5.26-5.87,5.26a5.9,5.9,0,0,1-6.31-5.26h2.9a3.33,3.33,0,0,0,3.52,2.8c1.92,0,2.9-1.13,2.9-2.58s-.65-2.47-3.88-3.51-4.79-2.69-4.79-5.3,1.89-4.71,5.44-4.71a5.57,5.57,0,0,1,5.84,4.75Z"/><path class="cls-1" d="M271.35,98.14h2.87v2.17h.07a6.41,6.41,0,0,1,5.18-2.75,5.89,5.89,0,0,1,5.66,3.59,6.67,6.67,0,0,1,6-3.59c3.92,0,6.64,2.71,6.64,7.83V115.5H294.9V105.17c0-2.68-1.23-5-4.17-5-2.43,0-4.71,1.74-4.71,5.73v9.64h-2.9V105.17c0-2.86-1.56-5-4.13-5-2.91,0-4.75,2.1-4.75,5.73v9.64h-2.87Z"/><path class="cls-1" d="M321.7,115.51h-2.86v-2.33h-.07a8.12,8.12,0,0,1-6.35,2.94,9.28,9.28,0,1,1,.18-18.56,7.77,7.77,0,0,1,6.2,3.08h0v-2.5h2.9Zm-8.88-1.93a6.46,6.46,0,0,0,6.27-6.64v0c0-4.13-2.79-6.85-6.2-6.85-4.35,0-6.42,3.41-6.42,6.74s2.07,6.78,6.35,6.78"/><path class="cls-1" d="M337.87,100.31a9.38,9.38,0,0,0-1.67-.18c-2.5,0-4.46,1.78-4.46,6.16v9.21h-2.86V98.14h2.82v2.17h.07a5.41,5.41,0,0,1,4.61-2.75,7.81,7.81,0,0,1,1.45.11Z"/><path class="cls-1" d="M342.1,98.14h2.29V92.59h2.86v5.55h4.65v2.39h-4.65v9.17c0,2.83.87,3.59,2.72,3.59a8,8,0,0,0,2.11-.29v2.36a8.73,8.73,0,0,1-2.69.36c-4.2,0-5-2.83-5-6.13v-9.06H342.1Z"/><path class="cls-1" d="M369,98.14h2.87v2.46h.07a8,8,0,0,1,6.53-3c5.54,0,8.73,4.53,8.73,9.24,0,5.26-3.77,9.32-8.84,9.32a8.26,8.26,0,0,1-6.42-2.93h-.07V124H369Zm8.85,1.92c-3.48,0-6.24,2.72-6.24,6.85a6.44,6.44,0,0,0,6.18,6.67h.13c4.21,0,6.31-3.44,6.31-6.78s-2.1-6.74-6.38-6.74"/><path class="cls-1" d="M409.21,106.59a6.74,6.74,0,0,1-.08,1H395a6.25,6.25,0,0,0,6.17,5.94,5.29,5.29,0,0,0,4.46-2.1h3.3a8.48,8.48,0,0,1-7.69,4.64c-5.51,0-9.21-4.13-9.21-9.53,0-4.79,3.37-9,8.63-9,6.31,0,8.6,5.22,8.6,9M395,105.19H406.2a5.62,5.62,0,0,0-11.21,0"/><path class="cls-1" d="M423.27,97.56a9,9,0,0,1,9.28,8.71v.53a9.28,9.28,0,0,1-18.56,0h0a9,9,0,0,1,8.75-9.24,4.69,4.69,0,0,1,.53,0m0,16c3.66,0,6.31-2.9,6.31-6.71,0-3.66-2.5-6.67-6.31-6.67S417,103,417,106.8a6.48,6.48,0,0,0,6.24,6.71h.07"/><path class="cls-1" d="M438.53,98.14h2.86v2.46h.07a8,8,0,0,1,6.53-3c5.55,0,8.74,4.53,8.74,9.24,0,5.26-3.77,9.32-8.85,9.32a8.26,8.26,0,0,1-6.42-2.93h-.07V124h-2.86Zm8.84,1.92c-3.48,0-6.23,2.72-6.23,6.85a6.42,6.42,0,0,0,6.16,6.67h.14c4.21,0,6.31-3.44,6.31-6.78s-2.1-6.74-6.38-6.74"/><rect class="cls-1" x="462.7" y="89.4" width="2.86" height="26.11"/><path class="cls-1" d="M488.77,106.59c0,.33,0,.67-.07,1H474.52a6.24,6.24,0,0,0,6.16,5.94,5.29,5.29,0,0,0,4.46-2.1h3.3a8.46,8.46,0,0,1-7.68,4.64c-5.52,0-9.21-4.13-9.21-9.53,0-4.79,3.37-9,8.63-9,6.3,0,8.59,5.22,8.59,9m-14.21-1.35h11.2a5.62,5.62,0,0,0-11.2,0"/><path class="cls-1" d="M261.93,140.57a2.87,2.87,0,0,0-2.79-2.32c-1.78,0-2.76,1.05-2.76,2.32,0,1.09.51,2,3.66,3,3.85,1.23,5,3.22,5,5.55,0,3.19-2.32,5.25-5.87,5.25a5.89,5.89,0,0,1-6.31-5.25h2.9a3.32,3.32,0,0,0,3.52,2.79c1.92,0,2.9-1.13,2.9-2.57s-.65-2.47-3.88-3.52-4.79-2.69-4.79-5.3,1.89-4.71,5.44-4.71a5.57,5.57,0,0,1,5.84,4.75Z"/><path class="cls-1" d="M271.35,136.4h2.87v2.17h.07a6.45,6.45,0,0,1,5.18-2.75,5.89,5.89,0,0,1,5.66,3.59,6.67,6.67,0,0,1,6-3.59c3.92,0,6.64,2.72,6.64,7.83v10.12H294.9V143.43c0-2.68-1.23-5-4.17-5-2.43,0-4.71,1.74-4.71,5.73v9.65h-2.9V143.43c0-2.86-1.56-5-4.13-5-2.91,0-4.75,2.11-4.75,5.73v9.65h-2.87Z"/><path class="cls-1" d="M321.7,153.77h-2.86v-2.32h-.07a8.18,8.18,0,0,1-6.35,2.93,9.28,9.28,0,1,1,.18-18.56,7.79,7.79,0,0,1,6.2,3.08h0v-2.5h2.9Zm-8.88-1.92a6.47,6.47,0,0,0,6.27-6.66h0c0-4.14-2.79-6.86-6.2-6.86-4.35,0-6.42,3.41-6.42,6.75s2.07,6.78,6.35,6.78"/><path class="cls-1" d="M337.87,138.57a9.38,9.38,0,0,0-1.67-.18c-2.5,0-4.46,1.78-4.46,6.17v9.21h-2.86V136.4h2.82v2.17h.07a5.41,5.41,0,0,1,4.61-2.75,7.81,7.81,0,0,1,1.45.11Z"/><path class="cls-1" d="M342.1,136.4h2.29v-5.55h2.86v5.55h4.65v2.39h-4.65V148c0,2.82.87,3.58,2.72,3.58a8,8,0,0,0,2.11-.29v2.36a8.45,8.45,0,0,1-2.69.37c-4.2,0-5-2.83-5-6.13v-9.07H342.1Z"/><path class="cls-1" d="M377.16,140.57a2.87,2.87,0,0,0-2.79-2.32c-1.78,0-2.76,1.05-2.76,2.32,0,1.09.51,2,3.66,3,3.85,1.23,5,3.22,5,5.55,0,3.19-2.32,5.25-5.87,5.25a5.89,5.89,0,0,1-6.31-5.25H371a3.32,3.32,0,0,0,3.52,2.79c1.92,0,2.9-1.13,2.9-2.57s-.65-2.47-3.88-3.52-4.79-2.69-4.79-5.3,1.89-4.71,5.44-4.71a5.57,5.57,0,0,1,5.84,4.75Z"/><path class="cls-1" d="M394.7,135.82a9,9,0,0,1,9.28,8.71c0,.18,0,.36,0,.54a9.28,9.28,0,0,1-18.56,0h0a9,9,0,0,1,8.74-9.25h.54m0,16c3.66,0,6.31-2.9,6.31-6.7s-2.51-6.68-6.31-6.68-6.31,2.83-6.31,6.68a6.47,6.47,0,0,0,6.23,6.7h.08"/><rect class="cls-1" x="409.92" y="127.66" width="2.86" height="26.11"/><path class="cls-1" d="M434.54,153.77H431.7v-2.14h-.08a6.27,6.27,0,0,1-5.25,2.75c-3,0-6.6-1.95-6.6-7.83V136.4h2.86v9.93c0,3.52,1.67,5.44,4.21,5.44,3,0,4.86-2.06,4.86-6.09V136.4h2.86Z"/><path class="cls-1" d="M439.83,136.4h2.28v-5.55H445v5.55h4.64v2.39H445V148c0,2.82.87,3.58,2.72,3.58a7.83,7.83,0,0,0,2.1-.29v2.36a8.39,8.39,0,0,1-2.68.37c-4.21,0-5-2.83-5-6.13v-9.07h-2.28Z"/><path class="cls-1" d="M455.16,128.86h3.54v3.37h-3.56Zm.33,7.54h2.87v17.37h-2.87Z"/><path class="cls-1" d="M473.61,135.82a9,9,0,0,1,9.29,8.7c0,.18,0,.37,0,.55a9.29,9.29,0,1,1-18.57.61c0-.2,0-.41,0-.61a9,9,0,0,1,8.74-9.25h.54m0,16c3.67,0,6.31-2.9,6.31-6.7s-2.5-6.68-6.31-6.68-6.3,2.83-6.3,6.68a6.47,6.47,0,0,0,6.23,6.7h.07"/><path class="cls-1" d="M488.87,136.4h2.83v2.17h.07a6.68,6.68,0,0,1,5.47-2.75c3.16,0,6.86,2,6.86,7.83v10.12h-2.87v-9.94c0-3.51-1.7-5.44-4.42-5.44-3.12,0-5.11,2.11-5.11,6.13v9.25h-2.87Z"/><path class="cls-1" d="M519.25,140.57a2.87,2.87,0,0,0-2.79-2.32c-1.78,0-2.76,1.05-2.76,2.32,0,1.09.51,2,3.67,3,3.84,1.23,5,3.22,5,5.55,0,3.19-2.32,5.25-5.87,5.25a5.89,5.89,0,0,1-6.31-5.25h2.9a3.32,3.32,0,0,0,3.52,2.79c1.92,0,2.9-1.13,2.9-2.57s-.65-2.47-3.88-3.52-4.79-2.69-4.79-5.3,1.89-4.71,5.44-4.71a5.57,5.57,0,0,1,5.84,4.75Z"/><path class="cls-2" d="M227.28,113.65A113.64,113.64,0,1,1,113.64,0,113.64,113.64,0,0,1,227.28,113.65v0"/><polygon class="cls-3" points="187.07 90.15 183.28 99.76 194.41 99.76 198.2 90.15 187.07 90.15"/><path class="cls-4" d="M77.41,98.44a29.11,29.11,0,0,0-22.14-9.89A31.92,31.92,0,0,0,31.7,98.39a32.73,32.73,0,0,0-9.65,23.67,33.14,33.14,0,0,0,9.53,23.73,31.13,31.13,0,0,0,23.12,9.89c8.48,0,16.11-3.39,22.71-10.09v8H88V65H77.41Zm-5.91,7.3a23.43,23.43,0,0,1,6.36,16.72,22.82,22.82,0,0,1-22.42,23,21.24,21.24,0,0,1-15.89-7A23.52,23.52,0,0,1,39.38,106,21.25,21.25,0,0,1,55.5,99.1a21.24,21.24,0,0,1,16,6.67"/><path class="cls-4" d="M195.57,145.45a25.41,25.41,0,0,1-6.66.91c-5.29,0-8.16-1.75-8.16-11V65H170V90.17h-7.14l-3.78,9.61H170V135c0,9.62,1.93,20.66,17,20.66a28.56,28.56,0,0,0,9-1.21l.48-.16V145.2Z"/><path class="cls-4" d="M129.21,129c-.62,1.55-1.51,4-2.63,7.16-.54,1.52-1,3-1.41,4-1-2.82-2.82-8-4.18-11.19L105.6,90.07H94.32l24.81,63,.18.44h11.31l25-63.48H144.46Z"/></g></g></svg>