<svg width="121" height="26" viewBox="0 0 121 26" fill="none" xmlns="http://www.w3.org/2000/svg">
<path d="M14.1221 0.20697V8.99446C12.9484 7.64254 11.2057 6.82427 8.8229 6.82427C4.16389 6.82427 0.322876 10.9156 0.322876 16.2166C0.322876 21.5175 4.16389 25.6089 8.8229 25.6089C11.2057 25.6089 12.9484 24.7906 14.1221 23.4387V25.1108H19.4568V0.20697H14.1221ZM9.88985 20.557C7.43586 20.557 5.65762 18.8848 5.65762 16.2166C5.65762 13.5483 7.43586 11.8762 9.88985 11.8762C12.3438 11.8762 14.1221 13.5483 14.1221 16.2166C14.1221 18.8848 12.3438 20.557 9.88985 20.557Z" fill="white"/>
<path d="M51.5736 12.4454V7.32235H47.9104V2.34158L42.5757 3.94255V7.32235H39.7305V12.4454H42.5757V18.7425C42.5757 23.7233 44.6029 25.8223 51.5736 25.1108V20.2723C49.2263 20.4146 47.9104 20.2723 47.9104 18.7425V12.4454H51.5736Z" fill="white"/>
<path d="M62.7824 25.6089C66.2678 25.6089 69.2908 23.7945 70.8201 21.0195L66.1611 18.3512C65.592 19.5964 64.2761 20.3435 62.7113 20.3435C60.3996 20.3435 58.6925 18.6714 58.6925 16.2166C58.6925 13.7618 60.3996 12.0897 62.7113 12.0897C64.2761 12.0897 65.5565 12.8368 66.1611 14.082L70.8201 11.3781C69.2908 8.6387 66.2322 6.82427 62.7824 6.82427C57.3765 6.82427 53.3577 10.9156 53.3577 16.2166C53.3577 21.5175 57.3765 25.6089 62.7824 25.6089Z" fill="white"/>
<path d="M81.1553 25.6089C86.3834 25.6089 90.58 21.5175 90.58 16.2166C90.58 10.9156 86.3834 6.82427 81.1553 6.82427C75.9273 6.82427 71.7306 10.9156 71.7306 16.2166C71.7306 21.5175 75.9273 25.6089 81.1553 25.6089ZM81.1553 20.4146C78.8436 20.4146 77.0654 18.7425 77.0654 16.2166C77.0654 13.6906 78.8436 12.0185 81.1553 12.0185C83.467 12.0185 85.2453 13.6906 85.2453 16.2166C85.2453 18.7425 83.467 20.4146 81.1553 20.4146Z" fill="white"/>
<path d="M113.514 6.82427C110.989 6.82427 109.353 7.74927 108.357 9.17235C107.361 7.67812 105.796 6.82427 103.698 6.82427C101.315 6.82427 99.7502 7.74927 98.9322 8.95889V7.32235H93.5975V25.1108H98.9322V15.0781C98.9322 12.9791 99.9281 11.7339 101.706 11.7339C103.413 11.7339 104.267 12.8723 104.267 14.6512V25.1108H109.602V15.0781C109.602 12.9791 110.598 11.7339 112.376 11.7339C114.083 11.7339 114.936 12.8723 114.936 14.6512V25.1108H120.271V14.1887C120.271 9.74158 117.604 6.82427 113.514 6.82427Z" fill="white"/>
<path d="M36.8986 16.5094C36.8986 20.0912 33.996 22.9948 30.4154 22.9948C26.8349 22.9948 23.9323 20.0912 23.9323 16.5094C23.9323 12.9276 26.8349 10.024 30.4154 10.024C33.996 10.024 36.8986 12.9276 36.8986 16.5094Z" fill="#3DCC8E"/>
</svg>
