<?xml version="1.0" encoding="utf-8"?>
<!-- Generator: Adobe Illustrator 23.0.4, SVG Export Plug-In . SVG Version: 6.00 Build 0)  -->
<svg version="1.1" id="Layer_1" xmlns="http://www.w3.org/2000/svg" xmlns:xlink="http://www.w3.org/1999/xlink" x="0px" y="0px"
	 viewBox="0 0 398.6 82.9" style="enable-background:new 0 0 398.6 82.9;" xml:space="preserve">
<style type="text/css">
	.st0{fill:#FFFFFF;}
</style>
<path class="st0" d="M128.3,17.9v8.7h4.9v16l-13.1-24.7H105v8.7h4.9v26.7H105V62h20v-8.7h-4.9v-16l13,24.7h10.2V26.6h4.9v-8.7
	L128.3,17.9"/>
<path class="st0" d="M189.7,34.8V17.9h-38.4v16.9h8.7v-8.2h4.7v26.7h-6.4V62h24.3v-8.7h-6.4V26.6h4.7v8.2H189.7"/>
<path class="st0" d="M231.1,34.8V17.9h-38.4v16.9h8.7v-8.2h4.7v26.7h-6.4V62H224v-8.7h-6.4V26.6h4.7v8.2H231.1"/>
<g>
	<path class="st0" d="M0,39.1c0,24.7,20.2,43.8,43.8,43.8s43.8-19.1,43.8-43.8C87.6,16.5,71.9,0,54.4,0c-3.9,0-7.9,0.9-10.6,2
		C41,0.9,37.1,0,33.2,0C15.8,0,0,16.5,0,39.1 M51.6,27.8c0,4.8-3.2,8.6-7.8,8.6S36,32.6,36,27.8c0-6.5,4.4-12.3,7.8-14.3
		C47.2,15.4,51.6,21.2,51.6,27.8 M10.8,38.9c0-17,12.3-28.7,21.9-28.2c-4.6,4.6-7.3,11.2-7.3,17.6c0,11.1,8.8,18.8,18.4,18.8
		c9.7,0,18.4-7.8,18.4-18.8c0-6.4-2.8-13.1-7.3-17.6c9.7-0.4,21.9,11.2,21.9,28.2c0,18.6-15,33.2-33,33.2
		C25.7,72.1,10.8,57.6,10.8,38.9"/>
</g>
<path class="st0" d="M274.2,60.3c-3.6,1.4-7.7,2.6-13.3,2.6c-16.3,0-21.8-10-21.8-22.5c0-15.2,9.7-23.2,22.7-23.2
	c4.8,0,8.6,1,11.1,2.1l-0.8,8.1c-1.8-0.9-4.5-2.3-10.1-2.3c-7.5,0-13.2,4.3-13.2,14.7c0,11.5,4.9,15.2,12.3,15.2
	c1.6,0,2.7-0.2,3.8-0.5V44.4h-5.6V37h14.9V60.3"/>
<path class="st0" d="M315.4,62.8c-9.5,0-15-6.2-15-16.6s5.1-17,15.5-17c9.9,0,14.8,6.8,14.8,16.5C330.7,57.4,324.3,62.8,315.4,62.8
	L315.4,62.8z M315.6,55.7c3.5,0,5.5-3.9,5.5-9.7c0-4.7-1.4-9.6-5.5-9.6c-4.3,0-5.7,4.9-5.7,9.7C309.9,51.5,311.8,55.7,315.6,55.7
	L315.6,55.7"/>
<g>
	<path class="st0" d="M368.5,40.7c0-4.2-0.1-7.8-0.2-10.8h8.2l0.4,4.5h0.1c2.1-3.4,5.4-5.2,9.6-5.2c6.3,0,12,6.1,12,16.4
		c0,11.7-6.7,17.2-13.1,17.2c-3.5,0-6.2-1.5-7.5-3.7h-0.1V75h-9.3V40.7H368.5z M377.9,48.3c0,0.8,0.1,1.5,0.2,2.1
		c0.6,2.7,2.7,4.7,5.3,4.7c3.9,0,5.8-3.6,5.8-9.1c0-5.1-1.7-9-5.7-9c-2.5,0-4.8,2.1-5.4,5.1c-0.1,0.6-0.2,1.2-0.2,1.8L377.9,48.3"/>
</g>
<path class="st0" d="M362.9,51.8c0,4.2,0.1,7.6,0.2,10.3H355l-0.4-4.5h-0.2c-1.1,2-3.8,5.3-9,5.3c-5.9,0-10.2-2.3-10.2-12.2V29.9
	h9.4v19c0,4.7,1,5.8,4.2,5.8c2.4,0,3.9-1.9,4.5-3.5c0.2-0.6,0.3-1.3,0.3-2.1V29.9h9.4L362.9,51.8"/>
<path class="st0" d="M279.8,40.5c0-4.7-0.1-7.8-0.2-10.6h8.1l0.3,5.9h0.2c1.5-4.7,5-6.7,7.8-6.7c1,0,2.2,0.1,2.9,0.3l-0.9,9.3
	c-0.8-0.2-1.5-0.3-2.5-0.3c-3.3,0-5.6,1.9-6.2,5.1c-0.1,0.6-0.2,1.4-0.2,2.2V62h-9.4L279.8,40.5"/>
</svg>
