<?xml version="1.0" encoding="utf-8"?>
<!-- Generator: Adobe Illustrator 23.0.4, SVG Export Plug-In . SVG Version: 6.00 Build 0)  -->
<svg version="1.1" id="Layer_1" xmlns="http://www.w3.org/2000/svg" xmlns:xlink="http://www.w3.org/1999/xlink" x="0px" y="0px"
	 viewBox="0 0 227.3 227.3" style="enable-background:new 0 0 227.3 227.3;" xml:space="preserve">
<style type="text/css">
	.st0{fill:#FFFFFF;}
</style>
<title>Asset 1</title>
<g id="Layer_1-2">
	<polygon class="st0" points="187.1,90.2 183.3,99.8 194.4,99.8 198.2,90.2 	"/>
	<path class="st0" d="M77.4,98.4c-5.6-6.4-13.7-10-22.1-9.9c-8.9-0.1-17.4,3.4-23.6,9.8c-6.3,6.3-9.8,14.8-9.6,23.7
		c-0.1,8.9,3.3,17.4,9.5,23.7c6,6.4,14.4,10,23.1,9.9c8.5,0,16.1-3.4,22.7-10.1v8H88V65H77.4V98.4z M71.5,105.7
		c4.2,4.5,6.5,10.5,6.4,16.7c0.1,12.5-9.9,22.8-22.4,23c-6.1,0-11.8-2.5-15.9-7c-8.7-9-8.8-23.3-0.2-32.5c4.1-4.5,10-7,16.1-6.9
		C61.5,98.9,67.4,101.4,71.5,105.7"/>
	<path class="st0" d="M195.6,145.4c-2.2,0.6-4.4,0.9-6.7,0.9c-5.3,0-8.2-1.8-8.2-11V65H170v25.2h-7.1l-3.8,9.6H170V135
		c0,9.6,1.9,20.7,17,20.7c3,0.1,6.1-0.3,9-1.2l0.5-0.2v-9.1L195.6,145.4z"/>
	<path class="st0" d="M129.2,129c-0.6,1.6-1.5,4-2.6,7.2c-0.5,1.5-1,3-1.4,4c-1-2.8-2.8-8-4.2-11.2l-15.4-38.9H94.3l24.8,63l0.2,0.4
		h11.3l25-63.5h-11.2L129.2,129z"/>
</g>
</svg>
