<?xml version="1.0" encoding="utf-8"?>
<!-- Generator: Adobe Illustrator 23.0.4, SVG Export Plug-In . SVG Version: 6.00 Build 0)  -->
<svg version="1.1" id="Layer_1" xmlns="http://www.w3.org/2000/svg" xmlns:xlink="http://www.w3.org/1999/xlink" x="0px" y="0px"
	 viewBox="0 0 2500 2500" style="enable-background:new 0 0 2500 2500;" xml:space="preserve">
<style type="text/css">
	.st0{fill-rule:evenodd;clip-rule:evenodd;fill:#FFFFFF;fill-opacity:0;}
	.st1{fill-rule:evenodd;clip-rule:evenodd;fill:#FFFFFF;}
</style>
<g>
	<path class="st0" d="M0,0h2500v2500H0V0z"/>
	<path class="st1" d="M217.1,1649.7h-2.7c-14,0-25.4-4.6-32.3-12.9c-6.7-8.6-10.2-27.3-10.9-57.7l-3.1-117l0.8-0.8l184.8,210.5h26.5
		c0.8-4.7,0.8-6.6,0.8-11.3c0-6.2-0.8-13.2-1.9-19.1l-2.4-11.7c-1.6-7.8-2.7-20.7-2.7-30.4l-2.3-123.6v-2.3c0-41.3,4.7-49.1,33.5-53
		c0.4,0,1.2,0,2-0.4v-17.9H306.4v17.9c18.7,0.8,27.7,3.9,34.3,11.7c5.5,7,9.4,28.5,10.1,62l2.7,74.1l-0.8,0.8l-146.6-166.5h-95.9
		v17.9c12.9,1.9,23.8,7.4,38.2,19.1l1.6,1.6l1.9,147.4v4.7c0,15.1-0.4,22.6-2.3,31.6c-3.9,16.7-16.4,25.3-35.9,25.3h-2.4v18.3h105.7
		V1649.7L217.1,1649.7z M725.2,1402.2H469v17.9h3.9c23.8,0,30.8,9.8,30.8,42.5v145c0,32.7-7,42.1-30.8,42.1H469v18.3h262l11.3-65.9
		h-26.9l-2.7,3.1c-14,16.8-23.8,25-38.6,33.1c-16.8,9.8-26.1,11.3-56.9,11.3c-33.9,0-44.4-9.8-44.4-40.9v-71.4h37
		c20.7,0,29.2,0.8,36.6,3.9c11.3,4.3,20.3,16,23.8,31.2h25.7v-86.2h-25.7c-2.7,10.1-4.3,13.3-9.7,19.9
		c-8.6,10.1-20.7,13.3-51.1,13.3h-36.6v-99.4h54.6c16,0,25,1.5,34.3,5.5c12.5,5.1,21.1,12.1,35.1,29.6l2.7,3.1h25.7V1402.2
		L725.2,1402.2z M785.2,1402.2v17.9h3.1c24.2,0,31.2,9.8,31.2,42.5v145c0,32.7-7,42.1-31.2,42.1h-3.1v18.3h136.8
		c38.2,0.4,51.8-1.2,70.9-6.2c61.6-16,101.4-66.7,101.4-130.2c0-46-21.4-86.9-57.3-109.5c-9.9-6.1-20.7-10.7-32-13.6
		c-16.8-4.7-30.4-6.2-58.5-6.2L785.2,1402.2L785.2,1402.2z M888.5,1420.1h10.1l12.9,0.4c42.5,0.4,59.3,5.4,77.2,24.6
		c10.9,11.2,19,24.8,23.8,39.8c5.5,17.5,8.2,36.3,8.2,56.1c0,50.3-18.3,88.1-48.4,101c-9.7,4.3-27.3,7.4-41.3,7.4
		c-31.6,0-42.5-12.1-42.5-46L888.5,1420.1L888.5,1420.1L888.5,1420.1z M1130.2,1402.2v17.9h3.5c23.8,0,30.8,9.8,30.8,42.5v145
		c0,33.1-6.6,42.1-32,42.1h-1.6v18.3h158.3c42.5,0.4,60.4-3.1,81.1-14c22.6-12.1,37.4-35.1,37.4-58.9c0-35.1-28.8-58.9-81.1-66.7
		v-0.8c21-4.3,28-6.6,41.7-14c19.9-10.9,31.2-29.2,31.2-49.1c0-39.4-36.3-62.4-99-62.4L1130.2,1402.2L1130.2,1402.2z M1233.5,1521.1
		v-101h33.9c19.5,0,26.5,1.9,37.4,9.8c13.7,10.1,21,25.7,21,44.4c0,15.2-5.1,26.1-15.2,35.1c-10.5,9-19.1,11.7-38.6,11.7H1233.5
		L1233.5,1521.1z M1233.5,1539.8h37.8c37,0,62.4,23.4,62.4,57.7c0,33.2-22.6,52.7-61.2,52.7c-26.5,0-39-13.7-39-43.3L1233.5,1539.8
		L1233.5,1539.8z M1603.4,1567.9l17.6,44.1c0.4,1.2,1.1,3.5,1.9,7c2.4,7.8,2.8,8.9,2.8,12.1c0,10.9-11.3,18.3-28.1,18.7v18.3h132.1
		v-18.3c-16.7,0-26.1-9.4-37.4-37.8l-83-212.8h-72.5l10.1,22.2l-71.8,182.5c-13.6,35-19.9,41.3-45.2,46v18.3h91.6v-18.3
		c-17.9-2.3-26.1-9.4-26.1-23.4c0-5.4,2.3-16,5.5-25.3l11.7-33.2L1603.4,1567.9L1603.4,1567.9L1603.4,1567.9z M1594.9,1544.9h-73.3
		l34.7-97.9L1594.9,1544.9z M1863.8,1649.7h-2.8c-14,0-25.3-4.6-32.3-12.9c-6.6-8.6-10.1-27.3-10.9-57.7l-3.1-117l0.8-0.8
		l184.8,210.5h26.5c0.8-4.7,0.8-6.6,0.8-11.3c0-6.2-0.8-13.2-2-19.1l-2.4-11.7c-1.7-10-2.6-20.2-2.7-30.4l-2.4-123.6v-2.3
		c0-41.3,4.7-49.1,33.5-53c0.4,0,1.2,0,1.9-0.4v-17.9h-100.6v17.9c18.7,0.8,27.7,3.9,34.3,11.7c5.5,7,9.4,28.5,10.1,62l2.8,74.1
		l-0.8,0.8l-146.6-166.5h-95.9v17.9c12.9,1.9,23.8,7.4,38.2,19.1l1.6,1.6l1.9,147.4v4.7c0,15.1-0.4,22.6-2.3,31.6
		c-3.9,16.7-16.4,25.3-35.9,25.3h-2.4v18.3h105.7L1863.8,1649.7L1863.8,1649.7L1863.8,1649.7z M2263.8,1420.1h2.7
		c12.1,0,19.9,5.8,19.9,14.8c0,8.9-14,26.5-33.5,42.5l-58.1,47.2v-62c0-32.7,7-42.5,31.2-42.5h3.1v-17.9h-137.6v17.9h4.3
		c24.1,0,31.2,9.8,31.2,42.5v145c0,32.7-7,42.1-31.2,42.1h-4.3v18.3h136.8v-18.3h-2.3c-24.2,0-31.2-9.4-31.2-42.1v-63.5l80.7,94.7
		c6.3,7.4,14.3,14,25.5,19.8c10.6,5.5,29.2,9.4,29.2,9.4h59.5v-18.3c-14.4-2.3-27.3-11.7-46.4-33.2l-96.3-109.9l65.1-54.6
		c29.3-24.6,33.6-26.9,59.3-32v-17.9h-107.6L2263.8,1420.1L2263.8,1420.1z M972.1,968.3c-0.2-72.7,28.7-142.5,80.3-193.8
		c51.3-51.6,121.1-80.5,193.8-80.3c72.7-0.2,142.5,28.7,193.8,80.3c51.7,51.8,80.3,120.6,80.3,193.8s-28.5,142.1-80.3,193.8
		c-51.3,51.6-121.1,80.5-193.8,80.3c-72.7,0.2-142.5-28.7-193.8-80.3C1000.6,1110.3,972.1,1041.5,972.1,968.3z M936.7,968.3
		c-0.2,82.1,32.4,160.9,90.6,218.8c58.5,58.5,136.2,90.6,218.8,90.6c82.7,0,160.4-32.2,218.8-90.6c58.5-58.4,90.6-136.2,90.6-218.8
		c0-82.6-32.2-160.4-90.6-218.8c-57.9-58.2-136.7-90.9-218.8-90.6c-82.7,0-160.4,32.2-218.8,90.6
		C969.1,807.4,936.5,886.2,936.7,968.3z"/>
	<path class="st1" d="M1250.7,840.3l91.7-63.2l98.4,65.7v251.8l-92.7,62.4l-94.1-60.1l-98,62.8l-104.6-62.5l0.8-253.5l96.3-66.7
		L1250.7,840.3L1250.7,840.3z M1152,803.2l-77.1,52.2l342.9,223.6l0.7-222.3l-72.3-46.9v121.8L1152,803.2L1152,803.2z
		 M1230.2,1083.3l-74.2-48.8v97.1L1230.2,1083.3L1230.2,1083.3z"/>
</g>
</svg>
